# xmcd CD database file
#
# Track frame offsets:
#	183
#	13348
#	25038
#	35015
#	47750
#	59710
#	71325
#	84303
#	96790
#	109663
#	122593
#	135015
#	149748
#	164183
#	178348
#	192383
#	206390
#	220453
#	234068
#	247168
#	262283
#	275075
#
# Disc length: 3826 seconds
#
# Revision: 0
# Processed by: cddbd v1.5.2PL0 Copyright (c) Steve Scherf et al.
# Submitted via: CDex 1.99.1
#
DISCID=550ef016
DTITLE=Furry Lewis - Furry Lewis 1927 - 1929
DYEAR=1900
DGENRE=Blues
TTITLE0=Everybody's Blues
TTITLE1=Mr Furry's Blues
TTITLE2=Sweet Papa Moan
TTITLE3=Rock Island Blues
TTITLE4=Jelly Roll
TTITLE5=Billy Lyons and Stack O'Lee
TTITLE6=Good Looking Girl Blues
TTITLE7=Why Don't You Come Home Blues
TTITLE8=Falling Down Blues
TTITLE9=Big Chief Blues
TTITLE10=Mean Old Bedbug Blues
TTITLE11=Furry's Blues
TTITLE12=I Will Turn Your Money Green
TTITLE13=Mistreatin' Mama
TTITLE14=Dry Land Blues
TTITLE15=Cannon Ball Blues
TTITLE16=Kassie Jones - Part 1
TTITLE17=Judge Harsh Blues
TTITLE18=John Henry (The Steel Driving Man) - 1
TTITLE19=John Henry (The Steel Driving Man) - 2
TTITLE20=Black Gypsy Blues
TTITLE21=Creepers Blues
EXTD=
EXTT0=
EXTT1=
EXTT2=
EXTT3=
EXTT4=
EXTT5=
EXTT6=
EXTT7=
EXTT8=
EXTT9=
EXTT10=
EXTT11=
EXTT12=
EXTT13=
EXTT14=
EXTT15=
EXTT16=
EXTT17=
EXTT18=
EXTT19=
EXTT20=
EXTT21=
PLAYORDER=
